<svg width="100%" height="100%" id="svg" viewBox="0 0 1440 400" xmlns="http://www.w3.org/2000/svg" class="transition duration-300 ease-in-out delay-150"><defs><linearGradient id="gradient" x1="0%" y1="50%" x2="100%" y2="50%"><stop offset="5%" stop-color="#002bdc"></stop><stop offset="95%" stop-color="#32ded4"></stop></linearGradient></defs><path d="M 0,400 C 0,400 0,133 0,133 C 22.694809685530785,149.80973549382148 45.38961937106157,166.61947098764296 68,152 C 90.61038062893843,137.38052901235704 113.13633220128455,91.3318515432497 135,90 C 156.86366779871545,88.6681484567503 178.06505182380033,132.05312283935825 207,146 C 235.93494817619967,159.94687716064175 272.6034605035141,144.45565709931736 295,131 C 317.3965394964859,117.54434290068262 325.5211061621435,106.12424876337221 348,114 C 370.4788938378565,121.87575123662779 407.312114847912,149.04734784719378 437,164 C 466.687885152088,178.95265215280622 489.23043444620873,181.6863598478527 511,171 C 532.7695655537913,160.3136401521473 553.7661473672534,136.20721276139528 579,133 C 604.2338526327466,129.79278723860472 633.7049760847774,147.4847891065662 653,154 C 672.2950239152226,160.5152108934338 681.4139482936372,155.85363081233976 707,148 C 732.5860517063628,140.14636918766024 774.6392307406741,129.10068764407478 800,135 C 825.3607692593259,140.89931235592522 834.0291287436667,163.74361861136111 854,162 C 873.9708712563333,160.25638138863889 905.2442542846593,133.92483791048082 935,128 C 964.7557457153407,122.07516208951918 992.9938541176962,136.55702974671567 1019,137 C 1045.0061458823038,137.44297025328433 1068.7803292445549,123.8470431026565 1091,108 C 1113.2196707554451,92.1529568973435 1133.8848289040834,74.05479784265832 1155,90 C 1176.1151710959166,105.94520215734168 1197.6803551391115,155.93376552671015 1221,179 C 1244.3196448608885,202.06623447328985 1269.3937505394697,198.2101400505011 1293,174 C 1316.6062494605303,149.7898599494989 1338.7446427030086,105.2256742712854 1363,95 C 1387.2553572969914,84.7743257287146 1413.6276786484957,108.8871628643573 1440,133 C 1440,133 1440,400 1440,400 Z" stroke="none" stroke-width="0" fill="url(#gradient)" fill-opacity="0.53" class="transition-all duration-300 ease-in-out delay-150 path-0"></path><defs><linearGradient id="gradient" x1="0%" y1="50%" x2="100%" y2="50%"><stop offset="5%" stop-color="#002bdc"></stop><stop offset="95%" stop-color="#32ded4"></stop></linearGradient></defs><path d="M 0,400 C 0,400 0,266 0,266 C 24.00198610861394,246.99175850792852 48.00397221722788,227.98351701585702 71,225 C 93.99602778277212,222.01648298414298 115.98609723970245,235.05769044450034 140,253 C 164.01390276029755,270.94230955549966 190.05163882396243,293.7857212061415 212,306 C 233.94836117603757,318.2142787938585 251.80734746444784,319.7994247309338 280,298 C 308.19265253555216,276.2005752690662 346.71897131824613,231.01657987012348 370,220 C 393.28102868175387,208.98342012987652 401.3167672625677,232.13425578857232 425,233 C 448.6832327374323,233.86574421142768 488.0139596314831,212.44639697558728 514,224 C 539.9860403685169,235.55360302441272 552.6273942115,280.08015630907863 576,294 C 599.3726057885,307.91984369092137 633.476463522517,291.2329777880982 659,283 C 684.523536477483,274.7670222119018 701.4667516984324,274.98793253852864 724,271 C 746.5332483015676,267.01206746147136 774.6565296837534,258.8152920577873 800,266 C 825.3434703162466,273.1847079422127 847.9071295665539,295.7508992303224 868,298 C 888.0928704334461,300.2491007696776 905.7149520500313,282.18111102092337 932,265 C 958.2850479499687,247.81888897907663 993.2330622333213,231.5246566859842 1016,231 C 1038.7669377666787,230.4753433140158 1049.3527990166822,245.72026223513973 1073,264 C 1096.6472009833178,282.2797377648603 1133.3557416999495,303.594294373457 1161,314 C 1188.6442583000505,324.405705626543 1207.2242341835185,323.9025602710321 1230,304 C 1252.7757658164815,284.0974397289679 1279.7473215659757,244.7954645424144 1300,229 C 1320.2526784340243,213.2045354575856 1333.7864795525782,220.91558155931017 1356,231 C 1378.2135204474218,241.08441844068983 1409.1067602237108,253.54220922034492 1440,266 C 1440,266 1440,400 1440,400 Z" stroke="none" stroke-width="0" fill="url(#gradient)" fill-opacity="1" class="transition-all duration-300 ease-in-out delay-150 path-1"></path></svg>